<mxfile host="app.diagrams.net" modified="2023-03-21T01:01:35.518Z" agent="5.0 (Windows NT 10.0; Win64; x64) AppleWebKit/537.36 (KHTML, like Gecko) Chrome/111.0.0.0 Safari/537.36" etag="5GeGuGV6XdeCRbGb_jmf" version="21.0.8" type="github">
  <diagram name="Page-1" id="4bd5d27a-524c-7e24-5d5f-89a86ee4fca1">
    <mxGraphModel dx="1975" dy="1063" grid="1" gridSize="10" guides="1" tooltips="1" connect="1" arrows="1" fold="1" page="1" pageScale="1" pageWidth="1100" pageHeight="850" background="none" math="0" shadow="0">
      <root>
        <mxCell id="0" />
        <mxCell id="1" parent="0" />
        <mxCell id="g7jsXfoqghb-dVBww1vz-1" value="" style="shape=image;html=1;verticalAlign=top;verticalLabelPosition=bottom;labelBackgroundColor=#ffffff;imageAspect=0;aspect=fixed;image=https://cdn4.iconfinder.com/data/icons/laundry-time/100/Washing_machine-128.png" vertex="1" parent="1">
          <mxGeometry x="510" y="130" width="100" height="100" as="geometry" />
        </mxCell>
        <mxCell id="g7jsXfoqghb-dVBww1vz-2" value="" style="shape=image;html=1;verticalAlign=top;verticalLabelPosition=bottom;labelBackgroundColor=#ffffff;imageAspect=0;aspect=fixed;image=https://cdn4.iconfinder.com/data/icons/laundry-time/100/Washing_machine-128.png" vertex="1" parent="1">
          <mxGeometry x="630" y="130" width="100" height="100" as="geometry" />
        </mxCell>
        <mxCell id="g7jsXfoqghb-dVBww1vz-3" value="" style="shape=image;html=1;verticalAlign=top;verticalLabelPosition=bottom;labelBackgroundColor=#ffffff;imageAspect=0;aspect=fixed;image=https://cdn4.iconfinder.com/data/icons/laundry-time/100/Washing_machine-128.png" vertex="1" parent="1">
          <mxGeometry x="750" y="130" width="100" height="100" as="geometry" />
        </mxCell>
        <mxCell id="g7jsXfoqghb-dVBww1vz-4" value="" style="shape=image;html=1;verticalAlign=top;verticalLabelPosition=bottom;labelBackgroundColor=#ffffff;imageAspect=0;aspect=fixed;image=https://cdn4.iconfinder.com/data/icons/laundry-time/100/Washing_machine-128.png" vertex="1" parent="1">
          <mxGeometry x="510" y="290" width="100" height="100" as="geometry" />
        </mxCell>
        <mxCell id="g7jsXfoqghb-dVBww1vz-5" value="" style="shape=image;html=1;verticalAlign=top;verticalLabelPosition=bottom;labelBackgroundColor=#ffffff;imageAspect=0;aspect=fixed;image=https://cdn4.iconfinder.com/data/icons/laundry-time/100/Washing_machine-128.png" vertex="1" parent="1">
          <mxGeometry x="630" y="290" width="100" height="100" as="geometry" />
        </mxCell>
        <mxCell id="g7jsXfoqghb-dVBww1vz-6" value="" style="shape=image;html=1;verticalAlign=top;verticalLabelPosition=bottom;labelBackgroundColor=#ffffff;imageAspect=0;aspect=fixed;image=https://cdn4.iconfinder.com/data/icons/laundry-time/100/Washing_machine-128.png" vertex="1" parent="1">
          <mxGeometry x="750" y="290" width="100" height="100" as="geometry" />
        </mxCell>
        <mxCell id="g7jsXfoqghb-dVBww1vz-7" value="" style="shape=image;html=1;verticalAlign=top;verticalLabelPosition=bottom;labelBackgroundColor=#ffffff;imageAspect=0;aspect=fixed;image=https://cdn4.iconfinder.com/data/icons/laundry-time/100/clothes_basket-128.png" vertex="1" parent="1">
          <mxGeometry x="140" y="90" width="50" height="50" as="geometry" />
        </mxCell>
        <mxCell id="g7jsXfoqghb-dVBww1vz-8" value="Actor" style="shape=umlActor;verticalLabelPosition=bottom;verticalAlign=top;html=1;outlineConnect=0;" vertex="1" parent="1">
          <mxGeometry x="220" y="380" width="30" height="70" as="geometry" />
        </mxCell>
        <mxCell id="g7jsXfoqghb-dVBww1vz-9" value="" style="shape=image;html=1;verticalAlign=top;verticalLabelPosition=bottom;labelBackgroundColor=#ffffff;imageAspect=0;aspect=fixed;image=https://cdn2.iconfinder.com/data/icons/home-sweet-home-4/320/iron_smoother-128.png" vertex="1" parent="1">
          <mxGeometry x="486" y="500" width="60" height="60" as="geometry" />
        </mxCell>
        <mxCell id="g7jsXfoqghb-dVBww1vz-10" value="" style="shape=image;html=1;verticalAlign=top;verticalLabelPosition=bottom;labelBackgroundColor=#ffffff;imageAspect=0;aspect=fixed;image=https://cdn2.iconfinder.com/data/icons/home-sweet-home-4/320/iron_smoother-128.png" vertex="1" parent="1">
          <mxGeometry x="590" y="500" width="60" height="60" as="geometry" />
        </mxCell>
        <mxCell id="g7jsXfoqghb-dVBww1vz-11" value="" style="shape=image;html=1;verticalAlign=top;verticalLabelPosition=bottom;labelBackgroundColor=#ffffff;imageAspect=0;aspect=fixed;image=https://cdn2.iconfinder.com/data/icons/home-sweet-home-4/320/iron_smoother-128.png" vertex="1" parent="1">
          <mxGeometry x="710" y="500" width="60" height="60" as="geometry" />
        </mxCell>
      </root>
    </mxGraphModel>
  </diagram>
</mxfile>
